<svg xmlns="http://www.w3.org/2000/svg" width="50" height="50" fill="none"><path fill="#fff" d="M47.6 24.8c0 12.592-10.208 22.8-22.8 22.8S2 37.392 2 24.8 12.208 2 24.8 2s22.8 10.208 22.8 22.8Z"/><path fill="#fff" d="M24.99 5.966c10.44 0 18.983 8.542 18.983 18.983 0 10.44-8.542 18.983-18.983 18.983-10.44 0-18.983-8.542-18.983-18.983S14.549 5.966 24.99 5.966Zm0-3.797c-12.529 0-22.78 10.25-22.78 22.78 0 12.529 10.251 22.78 22.78 22.78 12.529 0 22.78-10.251 22.78-22.78 0-12.53-10.251-22.78-22.78-22.78Z"/><path fill="#000" d="m20.977 20.936-7.619 14.679 14.68-7.619 7.618-14.679-14.68 7.619Zm3.53 5.574a2.062 2.062 0 0 1-2.044-2.044c0-1.115.93-2.044 2.044-2.044 1.115 0 2.044.93 2.044 2.044a2.062 2.062 0 0 1-2.044 2.044Z"/></svg>