<svg xmlns="http://www.w3.org/2000/svg" xmlns:vectornator="http://vectornator.io" xml:space="preserve" stroke-miterlimit="10" style="fill-rule:nonzero;clip-rule:evenodd;stroke-linecap:round;stroke-linejoin:round" viewBox="0 0 50 50"><path vectornator:layerName="レイヤー 1" fill="#2563EB" d="M24.975 2.13c-12.614 0-22.84 10.227-22.84 22.84s10.226 22.84 22.84 22.84c12.613 0 22.84-10.227 22.84-22.84S37.587 2.13 24.974 2.13Zm11.42 24.743h-9.517v9.517a1.903 1.903 0 1 1-3.807 0v-9.517h-9.516a1.903 1.903 0 1 1 0-3.806h9.516V13.55a1.903 1.903 0 1 1 3.807 0v9.517h9.517a1.903 1.903 0 1 1 0 3.806Z"/></svg>