<svg xmlns="http://www.w3.org/2000/svg" xml:space="preserve" id="_x32_" width="512" height="512" x="0" y="0" style="width:256px;height:256px;opacity:1" version="1.1"><style>.st0{fill:#4b4b4b}</style><path d="M256 224.828c-34.344 0-62.156 28.078-62.156 62.719s27.813 62.719 62.156 62.719 62.156-28.078 62.156-62.719-27.812-62.719-62.156-62.719z" class="st0" style="fill:#fff"/><path d="M478.766 135.75h-58.625c-13.078 0-24.938-7.75-30.297-19.781l-17.547-39.313c-5.359-12.016-17.234-19.766-30.313-19.766H170.016c-13.078 0-24.953 7.75-30.328 19.766l-17.531 39.313c-5.36 12.031-17.219 19.781-30.298 19.781H33.234C14.875 135.75 0 150.766 0 169.266v252.328c0 18.5 14.875 33.516 33.234 33.516h445.531c18.344 0 33.234-15.016 33.234-33.516V169.266c.001-18.5-14.89-33.516-33.233-33.516zM256 403.844c-63.688 0-115.297-52.063-115.297-116.297S192.313 171.234 256 171.234s115.297 52.078 115.297 116.313S319.688 403.844 256 403.844z" class="st0" style="fill:#fff"/></svg>