<svg xmlns="http://www.w3.org/2000/svg" xml:space="preserve" id="_x32_" x="0" y="0" style="width:256px;height:256px;opacity:1" version="1.1" viewBox="0 0 512 512"><path d="m193.741 236.582-12.672 2.492c-.668.137-1.033.667-.903 1.346l9.43 47.972-.549.111-36.345-42.68c-.601-.7-1.334-.91-2.119-.752l-13.457 2.648c-.668.13-1.033.66-.89 1.34l14.543 73.97c.131.674.667 1.04 1.334.909l12.673-2.492c.667-.137 1.033-.674.903-1.347l-9.417-47.859.562-.111 36.423 42.55c.601.7 1.23.922 2.131.752l13.34-2.629c.667-.131 1.033-.667.889-1.347l-14.542-73.97c-.131-.68-.667-1.033-1.334-.903zM271.635 285.639l-32.852 6.46c-.445.092-.719-.085-.798-.536l-3.113-15.805c-.092-.445.092-.713.536-.804l27.359-5.382c.667-.131 1.033-.66.903-1.334l-2.341-11.882c-.131-.667-.667-1.033-1.334-.902l-27.36 5.382c-.444.085-.719-.098-.811-.543l-2.968-15.132c-.092-.45.091-.719.536-.804l32.852-6.46c.667-.131 1.033-.667.889-1.34l-2.354-11.987c-.131-.68-.668-1.039-1.335-.908l-48.873 9.612c-.68.131-1.033.668-.902 1.347l14.543 73.971c.144.674.667 1.033 1.347.902l48.873-9.613c.667-.13 1.033-.667.889-1.34l-2.354-11.993c-.129-.674-.665-1.04-1.332-.909zM360.227 203.847l-14.347 2.818c-.784.151-1.164.582-1.124 1.393l-1.125 49.92-.236.046-22.848-45.204c-.366-.641-.902-.994-1.569-.863l-9.757 1.916c-.772.157-1.138.686-1.23 1.412l-3.596 50.41-.222.046-20.402-45.695c-.235-.661-.772-1.014-1.556-.857l-14.464 2.838c-.785.157-.915.647-.667 1.301l34.264 70.093c.366.628.902.994 1.57.863l11.208-2.21c.784-.15 1.15-.693 1.242-1.406l4.015-50.03.222-.046 22.547 44.806c.353.628.889.994 1.674.837l11.208-2.204c.785-.15 1.255-.712 1.243-1.412l5.061-77.829c-.026-.701-.326-1.099-1.111-.943z" class="st0" style="fill:#000000"/></svg>