<svg xmlns="http://www.w3.org/2000/svg" width="512" height="512" fill="none"><path fill="#fff" d="M20 45C8.954 45 0 53.954 0 65v381.645c0 11.046 8.954 20 20 20h472c11.046 0 20-8.954 20-20V65c0-11.046-8.954-20-20-20H20Zm451.84 361.485c0 11.046-8.954 20-20 20H60.159c-11.046 0-20-8.954-20-20V105.151c0-11.046 8.954-20 20-20H451.84c11.046 0 20 8.954 20 20v301.334Z"/><path fill="#fff" d="M326.128 207.55a22.41 22.41 0 0 0-37.43.031l-57.843 88.026c-7.243 11.022-22.985 12.139-31.711 2.249l-22.534-25.539a22.389 22.389 0 0 0-18.397-7.52 22.371 22.371 0 0 0-17.142 10.053l-46.572 70.958c-8.73 13.3.812 30.974 16.721 30.974h289.446c15.929 0 25.465-17.721 16.691-31.017L326.128 207.55Z"/><path fill="#E76464" d="M159 144.822c-22.507 0-40.752 18.248-40.752 40.759 0 22.507 36.251 79.241 40.752 79.241 4.504 0 40.752-56.734 40.752-79.241 0-22.511-18.245-40.759-40.752-40.759Zm0 56.345c-8.606 0-15.586-6.98-15.586-15.586 0-8.613 6.98-15.593 15.586-15.593s15.59 6.98 15.59 15.593c0 8.606-6.984 15.586-15.59 15.586Z"/></svg>