<svg xmlns="http://www.w3.org/2000/svg" xml:space="preserve" id="_x32_" x="0" y="0" style="width:256px;height:256px;opacity:1" version="1.1" viewBox="0 0 512 512"><style>.st0{fill:#4b4b4b}</style><path d="M0 45.178v421.644h512V45.178H0zm471.841 381.484H40.159V85.329h431.682v341.333z" class="st0" style="fill:#fff"/><path d="M326.128 207.728a22.41 22.41 0 0 0-37.43.031l-72.226 109.914-39.862-45.178a22.389 22.389 0 0 0-18.397-7.52 22.371 22.371 0 0 0-17.142 10.053L74.17 376.96h363.659L326.128 207.728zM174.972 230.713c25.102 0 45.453-20.35 45.453-45.461 0-25.102-20.35-45.452-45.453-45.452-25.11 0-45.46 20.35-45.46 45.452-.001 25.111 20.35 45.461 45.46 45.461z" class="st0" style="fill:#fff"/></svg>