<svg xmlns="http://www.w3.org/2000/svg" width="790" height="165" fill="none"><path fill="#4B4B4B" d="M216.191 120V54.546h23.331c5.092 0 9.311.926 12.656 2.78 3.345 1.854 5.849 4.39 7.511 7.607 1.662 3.196 2.493 6.796 2.493 10.802 0 4.027-.842 7.65-2.525 10.867-1.662 3.196-4.176 5.731-7.543 7.606-3.345 1.854-7.553 2.78-12.624 2.78h-16.044v-8.373h15.149c3.218 0 5.828-.554 7.83-1.662 2.003-1.13 3.473-2.663 4.411-4.602.937-1.94 1.406-4.144 1.406-6.616 0-2.472-.469-4.666-1.406-6.584-.938-1.917-2.418-3.42-4.443-4.506-2.002-1.087-4.644-1.63-7.926-1.63h-12.4V120h-9.876Zm69.057-29.148V120h-9.556V54.546h9.429v24.353h.607c1.15-2.642 2.908-4.74 5.273-6.296 2.365-1.555 5.455-2.333 9.269-2.333 3.366 0 6.307.692 8.821 2.077 2.535 1.385 4.496 3.452 5.88 6.2 1.407 2.728 2.11 6.137 2.11 10.228V120h-9.556V89.925c0-3.6-.927-6.392-2.781-8.373-1.853-2.003-4.432-3.004-7.734-3.004-2.259 0-4.283.479-6.073 1.438-1.768.959-3.164 2.365-4.186 4.218-1.002 1.833-1.503 4.049-1.503 6.648Zm67.963 30.139c-4.602 0-8.618-1.055-12.049-3.164-3.43-2.11-6.093-5.061-7.99-8.853-1.896-3.793-2.844-8.225-2.844-13.296 0-5.092.948-9.545 2.844-13.36 1.897-3.813 4.56-6.775 7.99-8.884 3.431-2.11 7.447-3.164 12.049-3.164 4.603 0 8.619 1.055 12.049 3.164 3.431 2.11 6.094 5.071 7.99 8.885 1.897 3.814 2.845 8.267 2.845 13.36 0 5.07-.948 9.502-2.845 13.295-1.896 3.792-4.559 6.743-7.99 8.853-3.43 2.109-7.446 3.164-12.049 3.164Zm.032-8.022c2.983 0 5.455-.789 7.415-2.365 1.96-1.577 3.409-3.676 4.347-6.296.958-2.621 1.438-5.508 1.438-8.662 0-3.132-.48-6.008-1.438-8.629-.938-2.642-2.387-4.762-4.347-6.36-1.96-1.598-4.432-2.397-7.415-2.397-3.004 0-5.497.799-7.478 2.397-1.961 1.598-3.42 3.718-4.379 6.36-.938 2.62-1.406 5.497-1.406 8.63 0 3.153.468 6.04 1.406 8.661.959 2.62 2.418 4.719 4.379 6.296 1.981 1.576 4.474 2.365 7.478 2.365Zm59.134-42.06v7.67h-26.815v-7.67h26.815Zm-19.624-11.761h9.557v46.438c0 1.854.277 3.249.83 4.187.554.916 1.268 1.544 2.142 1.885.895.32 1.864.48 2.908.48.767 0 1.438-.053 2.014-.16.575-.107 1.022-.192 1.342-.256l1.726 7.894c-.554.214-1.342.427-2.365.64-1.023.234-2.301.362-3.835.383-2.515.043-4.858-.405-7.032-1.342a12.059 12.059 0 0 1-5.273-4.347c-1.342-1.96-2.014-4.421-2.014-7.383v-48.42Zm53.046 61.843c-4.603 0-8.619-1.055-12.049-3.164-3.431-2.11-6.094-5.061-7.99-8.853-1.897-3.793-2.845-8.225-2.845-13.296 0-5.092.948-9.545 2.845-13.36 1.896-3.813 4.559-6.775 7.99-8.884 3.43-2.11 7.446-3.164 12.049-3.164 4.602 0 8.618 1.055 12.049 3.164 3.43 2.11 6.094 5.071 7.99 8.885s2.844 8.267 2.844 13.36c0 5.07-.948 9.502-2.844 13.295-1.896 3.792-4.56 6.743-7.99 8.853-3.431 2.109-7.447 3.164-12.049 3.164Zm.032-8.022c2.983 0 5.454-.789 7.414-2.365 1.961-1.577 3.41-3.676 4.347-6.296.959-2.621 1.438-5.508 1.438-8.662 0-3.132-.479-6.008-1.438-8.629-.937-2.642-2.386-4.762-4.347-6.36-1.96-1.598-4.431-2.397-7.414-2.397-3.005 0-5.497.799-7.479 2.397-1.96 1.598-3.42 3.718-4.379 6.36-.937 2.62-1.406 5.497-1.406 8.63 0 3.153.469 6.04 1.406 8.661.959 2.62 2.419 4.719 4.379 6.296 1.982 1.576 4.474 2.365 7.479 2.365Zm36.985-58.423h11.985l20.838 50.88h.767l20.838-50.88h11.985V120h-9.396V72.635h-.607l-19.304 47.269h-7.798L492.82 72.603h-.608V120h-9.396V54.546Zm96.991 66.541c-3.111 0-5.924-.576-8.438-1.726-2.514-1.172-4.506-2.866-5.976-5.082-1.449-2.216-2.174-4.932-2.174-8.15 0-2.77.533-5.049 1.598-6.84a11.799 11.799 0 0 1 4.315-4.25c1.811-1.044 3.835-1.832 6.072-2.365a60.385 60.385 0 0 1 6.84-1.215l7.159-.83c1.832-.235 3.164-.608 3.995-1.12.831-.51 1.247-1.341 1.247-2.492v-.224c0-2.79-.789-4.954-2.366-6.488-1.555-1.534-3.877-2.3-6.967-2.3-3.217 0-5.753.713-7.606 2.14-1.833 1.407-3.101 2.973-3.804 4.699l-8.981-2.046c1.066-2.983 2.621-5.39 4.667-7.223a18.917 18.917 0 0 1 7.127-4.027c2.684-.852 5.508-1.278 8.469-1.278 1.961 0 4.038.234 6.233.703a18.253 18.253 0 0 1 6.2 2.493c1.939 1.214 3.526 2.95 4.762 5.21 1.236 2.237 1.854 5.145 1.854 8.725V120H594.7v-6.712h-.383c-.618 1.236-1.545 2.451-2.781 3.644-1.236 1.193-2.823 2.184-4.762 2.972-1.939.788-4.261 1.183-6.967 1.183Zm2.077-7.671c2.642 0 4.901-.522 6.776-1.566 1.896-1.044 3.334-2.408 4.314-4.091 1.002-1.704 1.502-3.526 1.502-5.465v-6.328c-.34.34-1.001.66-1.981.959-.959.277-2.056.522-3.292.735-1.236.192-2.44.373-3.611.543-1.172.15-2.152.277-2.941.384-1.854.234-3.547.628-5.081 1.182-1.513.554-2.728 1.353-3.644 2.397-.895 1.023-1.342 2.387-1.342 4.091 0 2.365.873 4.155 2.62 5.369 1.748 1.194 3.974 1.79 6.68 1.79Zm37.577 24.993v-67.5h9.332v7.958h.799c.554-1.023 1.353-2.205 2.397-3.547 1.044-1.343 2.493-2.515 4.347-3.516 1.853-1.023 4.304-1.534 7.351-1.534 3.963 0 7.5 1.001 10.61 3.004 3.111 2.003 5.551 4.89 7.319 8.661 1.79 3.772 2.685 8.31 2.685 13.615 0 5.306-.884 9.855-2.653 13.647-1.768 3.772-4.197 6.68-7.287 8.726-3.089 2.024-6.615 3.036-10.579 3.036-2.983 0-5.422-.501-7.318-1.502-1.875-1.002-3.346-2.174-4.411-3.516-1.065-1.342-1.886-2.535-2.461-3.579h-.575v26.047h-9.556Zm9.364-42.954c0 3.451.501 6.477 1.502 9.076 1.002 2.6 2.45 4.634 4.347 6.105 1.896 1.449 4.219 2.173 6.967 2.173 2.855 0 5.242-.756 7.159-2.269 1.918-1.534 3.367-3.612 4.347-6.232 1.001-2.621 1.502-5.572 1.502-8.854 0-3.238-.49-6.146-1.47-8.725-.959-2.578-2.408-4.612-4.347-6.104-1.917-1.492-4.314-2.237-7.191-2.237-2.77 0-5.114.714-7.031 2.141-1.896 1.428-3.335 3.42-4.315 5.977-.98 2.556-1.47 5.54-1.47 8.948Z"/><path fill="#E76464" d="M677.58 120v-7.159l22.148-22.947c2.365-2.493 4.315-4.677 5.849-6.552 1.555-1.897 2.717-3.697 3.484-5.402a13.088 13.088 0 0 0 1.15-5.433c0-2.173-.511-4.048-1.534-5.625-1.023-1.598-2.418-2.823-4.187-3.675-1.768-.874-3.76-1.31-5.976-1.31-2.344 0-4.389.479-6.137 1.438a9.86 9.86 0 0 0-4.027 4.059c-.937 1.747-1.406 3.792-1.406 6.136h-9.428c0-3.984.916-7.468 2.748-10.451 1.833-2.983 4.347-5.295 7.543-6.935 3.196-1.663 6.829-2.493 10.898-2.493 4.113 0 7.735.82 10.867 2.46 3.153 1.62 5.614 3.836 7.383 6.648 1.768 2.791 2.652 5.945 2.652 9.46 0 2.43-.458 4.805-1.374 7.128-.895 2.322-2.461 4.91-4.698 7.766-2.237 2.834-5.348 6.275-9.332 10.323l-13.008 13.615v.48h29.467V120H677.58Zm55.115-12.784v-7.99l28.284-44.68h6.296v11.76h-3.995l-20.23 32.025v.511h38.767v8.374h-49.122ZM763.728 120v-15.213l.064-3.644V54.545h9.364V120h-9.428Z"/><g clip-path="url(#a)"><path fill="#fff" d="M172 24H26v119h146V24Z"/><path fill="#4B4B4B" d="M25.25 17A6.25 6.25 0 0 0 19 23.25v119.264a6.25 6.25 0 0 0 6.25 6.25h147.5a6.25 6.25 0 0 0 6.25-6.25V23.25a6.25 6.25 0 0 0-6.25-6.25H25.25Zm141.2 112.964a6.25 6.25 0 0 1-6.25 6.25H37.8a6.25 6.25 0 0 1-6.25-6.25V35.797a6.25 6.25 0 0 1 6.25-6.25h122.4a6.25 6.25 0 0 1 6.25 6.25v94.167Z"/><path fill="#4B4B4B" d="M120.915 67.797a7 7 0 0 0-11.697.01L91.142 95.315c-2.263 3.444-7.183 3.793-9.91.703l-7.041-7.981a6.996 6.996 0 0 0-5.75-2.35 6.99 6.99 0 0 0-5.356 3.141L48.53 111.003c-2.728 4.156.254 9.679 5.225 9.679h90.452c4.978 0 7.958-5.538 5.216-9.693l-28.509-43.192Z"/><path fill="#E76464" d="M68.688 48.194c-7.034 0-12.736 5.703-12.736 12.738 0 7.033 11.329 24.762 12.736 24.762s12.734-17.729 12.734-24.762c0-7.035-5.701-12.738-12.734-12.738Zm0 17.608a4.871 4.871 0 1 1 .001-9.743 4.871 4.871 0 0 1-.001 9.743Z"/></g><defs><clipPath id="a"><path fill="#fff" d="M19 17h160v132H19z"/></clipPath></defs></svg>